<?xml version="1.0" encoding="utf-8"?>
<svg version="1.2" baseProfile="tiny" width="100%" height="100%" viewBox="0 0 4267 4267" xmlns="http://www.w3.org/2000/svg" xmlns:xlink="http://www.w3.org/1999/xlink" xml:space="preserve" xmlns:serif="http://www.serif.com/" style="fill-rule:evenodd;clip-rule:evenodd;stroke-linejoin:round;stroke-miterlimit:2;">
    <title>Yeargin Haus</title>
    <g transform="matrix(4.16667,0,0,4.16667,998.999,4166.42)">
        <path d="M0,-920.187L176.129,-920.187C214.95,-769.841 269.334,-635.068 306.584,-483.162C369.278,-613.978 398.279,-778.476 450.092,-920.187L613.167,-920.187C577.677,-795.124 523.968,-650.455 469.659,-496.165C390.667,-271.792 366.208,0 26.094,-65.665C17.521,-95.74 37.275,-148.749 32.62,-196.121C131.254,-178.499 216.299,-236.402 221.789,-300.495C224.186,-328.522 188.482,-405.742 169.603,-457.055C119.449,-593.326 38.111,-798.754 0,-920.187" style="fill:rgb(35,31,32);"/>
    </g>
</svg>
